# xmcd
# 
# Track frame offsets:
#     150
#     21222
#     38940
#     56112
#     70400
#     87120
#     104357
#     119700
#     128442
#     148040
#     166275
#     186055
# 
# Disc length: 3017
# 
# Revision: 6
# Processed by: cddbd v1.5.2PL0 Copyright (c) Steve Scherf et al.
# Submitted via: fre:ac v1.0.31
# 
DISCID=a90bc70c
DTITLE=ゴダイゴ - SUPER TWIN DX ゴダイゴ [Disc 2]
DYEAR=1990
DGENRE=Progressive Rock
TTITLE0=Portopia
TTITLE1=Coming Together in Kathmandu
TTITLE2=Return to Africa
TTITLE3=Progress and Harmony
TTITLE4=Namaste
TTITLE5=はるかな旅へ/Where'll We Go from Now
TTITLE6=Three Years of Love
TTITLE7=Thank you, Baby
TTITLE8=Magic Capsule
TTITLE9=Carry Love
TTITLE10=Piano Blue
TTITLE11=平和組曲/Suite： Peace
EXTD=1990.12.1
EXTT0=
EXTT1=
EXTT2=
EXTT3=
EXTT4=
EXTT5=
EXTT6=
EXTT7=
EXTT8=
EXTT9=
EXTT10=
EXTT11=
PLAYORDER=
